<svg version="1.1" xmlns="http://www.w3.org/2000/svg" viewBox="0 0 155.07471285420934 155.07471285420934" width="310.1494257084187" height="310.1494257084187">
  <!-- svg-source:excalidraw -->
  
  <defs>
    <style class="style-fonts">
      
    </style>
    
  </defs>
  <g stroke-linecap="round" transform="translate(10 10) rotate(0 67.53735642710467 67.53735642710467)"><path d="M32 0 C58.25 0, 84.51 0, 103.07 0 C124.41 0, 135.07 10.67, 135.07 32 C135.07 49.01, 135.07 66.02, 135.07 103.07 C135.07 124.41, 124.41 135.07, 103.07 135.07 C81.11 135.07, 59.14 135.07, 32 135.07 C10.67 135.07, 0 124.41, 0 103.07 C0 80.88, 0 58.68, 0 32 C0 10.67, 10.67 0, 32 0" stroke="none" stroke-width="0" fill="#e3fafc"></path><path d="M32 0 C50.37 0, 68.73 0, 103.07 0 M32 0 C53.99 0, 75.97 0, 103.07 0 M103.07 0 C124.41 0, 135.07 10.67, 135.07 32 M103.07 0 C124.41 0, 135.07 10.67, 135.07 32 M135.07 32 C135.07 52.14, 135.07 72.27, 135.07 103.07 M135.07 32 C135.07 59.73, 135.07 87.45, 135.07 103.07 M135.07 103.07 C135.07 124.41, 124.41 135.07, 103.07 135.07 M135.07 103.07 C135.07 124.41, 124.41 135.07, 103.07 135.07 M103.07 135.07 C83.72 135.07, 64.36 135.07, 32 135.07 M103.07 135.07 C79.83 135.07, 56.58 135.07, 32 135.07 M32 135.07 C10.67 135.07, 0 124.41, 0 103.07 M32 135.07 C10.67 135.07, 0 124.41, 0 103.07 M0 103.07 C0 75.8, 0 48.52, 0 32 M0 103.07 C0 78.19, 0 53.3, 0 32 M0 32 C0 10.67, 10.67 0, 32 0 M0 32 C0 10.67, 10.67 0, 32 0" stroke="#e3fafc" stroke-width="4" fill="none"></path></g><g stroke-linecap="round" transform="translate(107.9069813495214 47.388726435653325) rotate(344.99999999999994 7.371837258427149 9.494032832822882)"><path d="M14.74 9.49 C14.74 10.04, 14.71 10.6, 14.63 11.14 C14.56 11.68, 14.45 12.22, 14.3 12.74 C14.15 13.26, 13.97 13.77, 13.76 14.24 C13.54 14.72, 13.29 15.18, 13.02 15.6 C12.74 16.02, 12.44 16.41, 12.11 16.77 C11.78 17.12, 11.43 17.44, 11.06 17.72 C10.69 17.99, 10.29 18.23, 9.89 18.42 C9.49 18.6, 9.07 18.75, 8.65 18.84 C8.23 18.94, 7.8 18.99, 7.37 18.99 C6.95 18.99, 6.51 18.94, 6.09 18.84 C5.67 18.75, 5.25 18.6, 4.85 18.42 C4.45 18.23, 4.06 17.99, 3.69 17.72 C3.32 17.44, 2.96 17.12, 2.63 16.77 C2.31 16.41, 2 16.02, 1.72 15.6 C1.45 15.18, 1.2 14.72, 0.99 14.24 C0.77 13.77, 0.59 13.26, 0.44 12.74 C0.3 12.22, 0.19 11.68, 0.11 11.14 C0.04 10.6, 0 10.04, 0 9.49 C0 8.94, 0.04 8.39, 0.11 7.85 C0.19 7.3, 0.3 6.76, 0.44 6.25 C0.59 5.73, 0.77 5.22, 0.99 4.75 C1.2 4.27, 1.45 3.81, 1.72 3.39 C2 2.97, 2.31 2.57, 2.63 2.22 C2.96 1.87, 3.32 1.55, 3.69 1.27 C4.06 1, 4.45 0.76, 4.85 0.57 C5.25 0.38, 5.67 0.24, 6.09 0.14 C6.51 0.05, 6.95 0, 7.37 0 C7.8 0, 8.23 0.05, 8.65 0.14 C9.07 0.24, 9.49 0.38, 9.89 0.57 C10.29 0.76, 10.69 1, 11.06 1.27 C11.43 1.55, 11.78 1.87, 12.11 2.22 C12.44 2.57, 12.74 2.97, 13.02 3.39 C13.29 3.81, 13.54 4.27, 13.76 4.75 C13.97 5.22, 14.15 5.73, 14.3 6.25 C14.45 6.76, 14.56 7.3, 14.63 7.85 C14.71 8.39, 14.73 9.22, 14.74 9.49 C14.76 9.77, 14.76 9.22, 14.74 9.49" stroke="none" stroke-width="0" fill="#ff8787"></path><path d="M14.74 9.49 C14.74 10.04, 14.71 10.6, 14.63 11.14 C14.56 11.68, 14.45 12.22, 14.3 12.74 C14.15 13.26, 13.97 13.77, 13.76 14.24 C13.54 14.72, 13.29 15.18, 13.02 15.6 C12.74 16.02, 12.44 16.41, 12.11 16.77 C11.78 17.12, 11.43 17.44, 11.06 17.72 C10.69 17.99, 10.29 18.23, 9.89 18.42 C9.49 18.6, 9.07 18.75, 8.65 18.84 C8.23 18.94, 7.8 18.99, 7.37 18.99 C6.95 18.99, 6.51 18.94, 6.09 18.84 C5.67 18.75, 5.25 18.6, 4.85 18.42 C4.45 18.23, 4.06 17.99, 3.69 17.72 C3.32 17.44, 2.96 17.12, 2.63 16.77 C2.31 16.41, 2 16.02, 1.72 15.6 C1.45 15.18, 1.2 14.72, 0.99 14.24 C0.77 13.77, 0.59 13.26, 0.44 12.74 C0.3 12.22, 0.19 11.68, 0.11 11.14 C0.04 10.6, 0 10.04, 0 9.49 C0 8.94, 0.04 8.39, 0.11 7.85 C0.19 7.3, 0.3 6.76, 0.44 6.25 C0.59 5.73, 0.77 5.22, 0.99 4.75 C1.2 4.27, 1.45 3.81, 1.72 3.39 C2 2.97, 2.31 2.57, 2.63 2.22 C2.96 1.87, 3.32 1.55, 3.69 1.27 C4.06 1, 4.45 0.76, 4.85 0.57 C5.25 0.38, 5.67 0.24, 6.09 0.14 C6.51 0.05, 6.95 0, 7.37 0 C7.8 0, 8.23 0.05, 8.65 0.14 C9.07 0.24, 9.49 0.38, 9.89 0.57 C10.29 0.76, 10.69 1, 11.06 1.27 C11.43 1.55, 11.78 1.87, 12.11 2.22 C12.44 2.57, 12.74 2.97, 13.02 3.39 C13.29 3.81, 13.54 4.27, 13.76 4.75 C13.97 5.22, 14.15 5.73, 14.3 6.25 C14.45 6.76, 14.56 7.3, 14.63 7.85 C14.71 8.39, 14.73 9.22, 14.74 9.49 C14.76 9.77, 14.76 9.22, 14.74 9.49" stroke="#343a40" stroke-width="4" fill="none"></path></g><g stroke-linecap="round"><g transform="translate(76.45548516337908 15.415121394268226) rotate(45.00000000000005 14.073353955474545 65.1292549071652)" fill-rule="evenodd"><path d="M0 0 L22.09 18.41 L4.65 41.92 L61.38 94.18 L25.3 130.26 L7.73 110.93 L-33.24 36.52 L0 0" stroke="none" stroke-width="0" fill="#ffd43b" fill-rule="evenodd"></path><path d="M0 0 C4.65 3.88, 9.3 7.75, 22.09 18.41 M0 0 C7.6 6.33, 15.2 12.67, 22.09 18.41 M22.09 18.41 C17.29 24.88, 12.5 31.35, 4.65 41.92 M22.09 18.41 C17.17 25.04, 12.25 31.67, 4.65 41.92 M4.65 41.92 C26.6 62.14, 48.55 82.36, 61.38 94.18 M4.65 41.92 C25.79 61.4, 46.94 80.87, 61.38 94.18 M61.38 94.18 C52.68 102.87, 43.99 111.57, 25.3 130.26 M61.38 94.18 C50.53 105.03, 39.68 115.88, 25.3 130.26 M25.3 130.26 C21.29 125.85, 17.29 121.44, 7.73 110.93 M25.3 130.26 C20.78 125.28, 16.25 120.3, 7.73 110.93 M7.73 110.93 C-0.68 95.65, -9.08 80.38, -33.24 36.52 M7.73 110.93 C-1.22 94.67, -10.17 78.41, -33.24 36.52 M-33.24 36.52 C-20.96 23.03, -8.68 9.54, 0 0 M-33.24 36.52 C-22.53 24.75, -11.82 12.98, 0 0 M0 0 C0 0, 0 0, 0 0 M0 0 C0 0, 0 0, 0 0" stroke="#343a40" stroke-width="4" fill="none"></path></g></g><mask></mask><g stroke-linecap="round" transform="translate(90.14153115423574 33.539197617389846) rotate(314.99999999999994 6.35449722364217 6.35449722364217)"><path d="M12.71 6.35 C12.71 6.72, 12.68 7.1, 12.61 7.46 C12.55 7.82, 12.45 8.18, 12.33 8.53 C12.2 8.87, 12.04 9.21, 11.86 9.53 C11.67 9.85, 11.46 10.16, 11.22 10.44 C10.99 10.72, 10.72 10.99, 10.44 11.22 C10.16 11.46, 9.85 11.67, 9.53 11.86 C9.21 12.04, 8.87 12.2, 8.53 12.33 C8.18 12.45, 7.82 12.55, 7.46 12.61 C7.1 12.68, 6.72 12.71, 6.35 12.71 C5.99 12.71, 5.61 12.68, 5.25 12.61 C4.89 12.55, 4.53 12.45, 4.18 12.33 C3.84 12.2, 3.5 12.04, 3.18 11.86 C2.86 11.67, 2.55 11.46, 2.27 11.22 C1.99 10.99, 1.72 10.72, 1.49 10.44 C1.25 10.16, 1.04 9.85, 0.85 9.53 C0.67 9.21, 0.51 8.87, 0.38 8.53 C0.26 8.18, 0.16 7.82, 0.1 7.46 C0.03 7.1, 0 6.72, 0 6.35 C0 5.99, 0.03 5.61, 0.1 5.25 C0.16 4.89, 0.26 4.53, 0.38 4.18 C0.51 3.84, 0.67 3.5, 0.85 3.18 C1.04 2.86, 1.25 2.55, 1.49 2.27 C1.72 1.99, 1.99 1.72, 2.27 1.49 C2.55 1.25, 2.86 1.04, 3.18 0.85 C3.5 0.67, 3.84 0.51, 4.18 0.38 C4.53 0.26, 4.89 0.16, 5.25 0.1 C5.61 0.03, 5.99 0, 6.35 0 C6.72 0, 7.1 0.03, 7.46 0.1 C7.82 0.16, 8.18 0.26, 8.53 0.38 C8.87 0.51, 9.21 0.67, 9.53 0.85 C9.85 1.04, 10.16 1.25, 10.44 1.49 C10.72 1.72, 10.99 1.99, 11.22 2.27 C11.46 2.55, 11.67 2.86, 11.86 3.18 C12.04 3.5, 12.2 3.84, 12.33 4.18 C12.45 4.53, 12.55 4.89, 12.61 5.25 C12.68 5.61, 12.69 6.17, 12.71 6.35 C12.73 6.54, 12.73 6.17, 12.71 6.35" stroke="none" stroke-width="0" fill="#ffffff"></path><path d="M12.71 6.35 C12.71 6.72, 12.68 7.1, 12.61 7.46 C12.55 7.82, 12.45 8.18, 12.33 8.53 C12.2 8.87, 12.04 9.21, 11.86 9.53 C11.67 9.85, 11.46 10.16, 11.22 10.44 C10.99 10.72, 10.72 10.99, 10.44 11.22 C10.16 11.46, 9.85 11.67, 9.53 11.86 C9.21 12.04, 8.87 12.2, 8.53 12.33 C8.18 12.45, 7.82 12.55, 7.46 12.61 C7.1 12.68, 6.72 12.71, 6.35 12.71 C5.99 12.71, 5.61 12.68, 5.25 12.61 C4.89 12.55, 4.53 12.45, 4.18 12.33 C3.84 12.2, 3.5 12.04, 3.18 11.86 C2.86 11.67, 2.55 11.46, 2.27 11.22 C1.99 10.99, 1.72 10.72, 1.49 10.44 C1.25 10.16, 1.04 9.85, 0.85 9.53 C0.67 9.21, 0.51 8.87, 0.38 8.53 C0.26 8.18, 0.16 7.82, 0.1 7.46 C0.03 7.1, 0 6.72, 0 6.35 C0 5.99, 0.03 5.61, 0.1 5.25 C0.16 4.89, 0.26 4.53, 0.38 4.18 C0.51 3.84, 0.67 3.5, 0.85 3.18 C1.04 2.86, 1.25 2.55, 1.49 2.27 C1.72 1.99, 1.99 1.72, 2.27 1.49 C2.55 1.25, 2.86 1.04, 3.18 0.85 C3.5 0.67, 3.84 0.51, 4.18 0.38 C4.53 0.26, 4.89 0.16, 5.25 0.1 C5.61 0.03, 5.99 0, 6.35 0 C6.72 0, 7.1 0.03, 7.46 0.1 C7.82 0.16, 8.18 0.26, 8.53 0.38 C8.87 0.51, 9.21 0.67, 9.53 0.85 C9.85 1.04, 10.16 1.25, 10.44 1.49 C10.72 1.72, 10.99 1.99, 11.22 2.27 C11.46 2.55, 11.67 2.86, 11.86 3.18 C12.04 3.5, 12.2 3.84, 12.33 4.18 C12.45 4.53, 12.55 4.89, 12.61 5.25 C12.68 5.61, 12.69 6.17, 12.71 6.35 C12.73 6.54, 12.73 6.17, 12.71 6.35" stroke="#343a40" stroke-width="4" fill="none"></path></g><g stroke-linecap="round"><g transform="translate(62.61412226136849 14.080647622341758) rotate(314.99999999999994 -4.459948901332382 46.47662049562075)" fill-rule="evenodd"><path d="M0 0 L-22.09 18.41 L-4.65 41.92 L-42.16 77.88 L-21.98 92.95 L33.24 36.52 L0 0" stroke="none" stroke-width="0" fill="#4dabf7" fill-rule="evenodd"></path><path d="M0 0 C-5.47 4.55, -10.93 9.11, -22.09 18.41 M0 0 C-8.24 6.87, -16.48 13.73, -22.09 18.41 M-22.09 18.41 C-17.15 25.07, -12.21 31.73, -4.65 41.92 M-22.09 18.41 C-15.29 27.58, -8.48 36.75, -4.65 41.92 M-4.65 41.92 C-13.2 50.12, -21.75 58.32, -42.16 77.88 M-4.65 41.92 C-16.53 53.31, -28.41 64.7, -42.16 77.88 M-42.16 77.88 C-34.77 83.4, -27.39 88.91, -21.98 92.95 M-42.16 77.88 C-34.68 83.47, -27.2 89.05, -21.98 92.95 M-21.98 92.95 C-6.35 76.98, 9.27 61.01, 33.24 36.52 M-21.98 92.95 C-1.61 72.14, 18.76 51.32, 33.24 36.52 M33.24 36.52 C25.31 27.81, 17.38 19.1, 0 0 M33.24 36.52 C26.33 28.93, 19.42 21.34, 0 0 M0 0 C0 0, 0 0, 0 0 M0 0 C0 0, 0 0, 0 0" stroke="#343a40" stroke-width="4" fill="none"></path></g></g><mask></mask><g stroke-linecap="round" transform="translate(51.69722376036816 33.32392064799433) rotate(494.99999999999994 6.35449722364217 6.35449722364217)"><path d="M12.71 6.35 C12.71 6.72, 12.68 7.1, 12.61 7.46 C12.55 7.82, 12.45 8.18, 12.33 8.53 C12.2 8.87, 12.04 9.21, 11.86 9.53 C11.67 9.85, 11.46 10.16, 11.22 10.44 C10.99 10.72, 10.72 10.99, 10.44 11.22 C10.16 11.46, 9.85 11.67, 9.53 11.86 C9.21 12.04, 8.87 12.2, 8.53 12.33 C8.18 12.45, 7.82 12.55, 7.46 12.61 C7.1 12.68, 6.72 12.71, 6.35 12.71 C5.99 12.71, 5.61 12.68, 5.25 12.61 C4.89 12.55, 4.53 12.45, 4.18 12.33 C3.84 12.2, 3.5 12.04, 3.18 11.86 C2.86 11.67, 2.55 11.46, 2.27 11.22 C1.99 10.99, 1.72 10.72, 1.49 10.44 C1.25 10.16, 1.04 9.85, 0.85 9.53 C0.67 9.21, 0.51 8.87, 0.38 8.53 C0.26 8.18, 0.16 7.82, 0.1 7.46 C0.03 7.1, 0 6.72, 0 6.35 C0 5.99, 0.03 5.61, 0.1 5.25 C0.16 4.89, 0.26 4.53, 0.38 4.18 C0.51 3.84, 0.67 3.5, 0.85 3.18 C1.04 2.86, 1.25 2.55, 1.49 2.27 C1.72 1.99, 1.99 1.72, 2.27 1.49 C2.55 1.25, 2.86 1.04, 3.18 0.85 C3.5 0.67, 3.84 0.51, 4.18 0.38 C4.53 0.26, 4.89 0.16, 5.25 0.1 C5.61 0.03, 5.99 0, 6.35 0 C6.72 0, 7.1 0.03, 7.46 0.1 C7.82 0.16, 8.18 0.26, 8.53 0.38 C8.87 0.51, 9.21 0.67, 9.53 0.85 C9.85 1.04, 10.16 1.25, 10.44 1.49 C10.72 1.72, 10.99 1.99, 11.22 2.27 C11.46 2.55, 11.67 2.86, 11.86 3.18 C12.04 3.5, 12.2 3.84, 12.33 4.18 C12.45 4.53, 12.55 4.89, 12.61 5.25 C12.68 5.61, 12.69 6.17, 12.71 6.35 C12.73 6.54, 12.73 6.17, 12.71 6.35" stroke="none" stroke-width="0" fill="#ffffff"></path><path d="M12.71 6.35 C12.71 6.72, 12.68 7.1, 12.61 7.46 C12.55 7.82, 12.45 8.18, 12.33 8.53 C12.2 8.87, 12.04 9.21, 11.86 9.53 C11.67 9.85, 11.46 10.16, 11.22 10.44 C10.99 10.72, 10.72 10.99, 10.44 11.22 C10.16 11.46, 9.85 11.67, 9.53 11.86 C9.21 12.04, 8.87 12.2, 8.53 12.33 C8.18 12.45, 7.82 12.55, 7.46 12.61 C7.1 12.68, 6.72 12.71, 6.35 12.71 C5.99 12.71, 5.61 12.68, 5.25 12.61 C4.89 12.55, 4.53 12.45, 4.18 12.33 C3.84 12.2, 3.5 12.04, 3.18 11.86 C2.86 11.67, 2.55 11.46, 2.27 11.22 C1.99 10.99, 1.72 10.72, 1.49 10.44 C1.25 10.16, 1.04 9.85, 0.85 9.53 C0.67 9.21, 0.51 8.87, 0.38 8.53 C0.26 8.18, 0.16 7.82, 0.1 7.46 C0.03 7.1, 0 6.72, 0 6.35 C0 5.99, 0.03 5.61, 0.1 5.25 C0.16 4.89, 0.26 4.53, 0.38 4.18 C0.51 3.84, 0.67 3.5, 0.85 3.18 C1.04 2.86, 1.25 2.55, 1.49 2.27 C1.72 1.99, 1.99 1.72, 2.27 1.49 C2.55 1.25, 2.86 1.04, 3.18 0.85 C3.5 0.67, 3.84 0.51, 4.18 0.38 C4.53 0.26, 4.89 0.16, 5.25 0.1 C5.61 0.03, 5.99 0, 6.35 0 C6.72 0, 7.1 0.03, 7.46 0.1 C7.82 0.16, 8.18 0.26, 8.53 0.38 C8.87 0.51, 9.21 0.67, 9.53 0.85 C9.85 1.04, 10.16 1.25, 10.44 1.49 C10.72 1.72, 10.99 1.99, 11.22 2.27 C11.46 2.55, 11.67 2.86, 11.86 3.18 C12.04 3.5, 12.2 3.84, 12.33 4.18 C12.45 4.53, 12.55 4.89, 12.61 5.25 C12.68 5.61, 12.69 6.17, 12.71 6.35 C12.73 6.54, 12.73 6.17, 12.71 6.35" stroke="#343a40" stroke-width="4" fill="none"></path></g></svg>